<svg width="88" height="23" viewBox="0 0 88 23" fill="none" xmlns="http://www.w3.org/2000/svg">
<path d="M0.382812 0H3.48828V15.1992L3.18359 18H0.382812V0ZM11.6445 11.5312V11.7773C11.6445 12.7227 11.5391 13.5898 11.3281 14.3789C11.125 15.168 10.8164 15.8516 10.4023 16.4297C9.98828 17 9.47266 17.4453 8.85547 17.7656C8.24609 18.0781 7.53125 18.2344 6.71094 18.2344C5.92969 18.2344 5.25 18.082 4.67188 17.7773C4.10156 17.4727 3.62109 17.043 3.23047 16.4883C2.83984 15.9258 2.52734 15.2656 2.29297 14.5078C2.05859 13.7422 1.88281 12.9062 1.76562 12V11.332C1.88281 10.418 2.05859 9.58203 2.29297 8.82422C2.52734 8.06641 2.83984 7.40625 3.23047 6.84375C3.62109 6.28125 4.10156 5.84766 4.67188 5.54297C5.24219 5.23828 5.91406 5.08594 6.6875 5.08594C7.51562 5.08594 8.23828 5.24609 8.85547 5.56641C9.48047 5.87891 9.99609 6.32422 10.4023 6.90234C10.8164 7.47266 11.125 8.15234 11.3281 8.94141C11.5391 9.72266 11.6445 10.5859 11.6445 11.5312ZM8.53906 11.7773V11.5312C8.53906 10.9922 8.49609 10.4844 8.41016 10.0078C8.32422 9.52344 8.18359 9.09766 7.98828 8.73047C7.79297 8.36328 7.52734 8.07422 7.19141 7.86328C6.85547 7.65234 6.43359 7.54688 5.92578 7.54688C5.44141 7.54688 5.02734 7.62891 4.68359 7.79297C4.34766 7.95703 4.06641 8.18359 3.83984 8.47266C3.62109 8.76172 3.44922 9.10156 3.32422 9.49219C3.20703 9.88281 3.12891 10.3047 3.08984 10.7578V12.5859C3.14453 13.1875 3.27344 13.7305 3.47656 14.2148C3.67969 14.6914 3.98047 15.0703 4.37891 15.3516C4.78516 15.6328 5.30859 15.7734 5.94922 15.7734C6.44922 15.7734 6.86719 15.6758 7.20312 15.4805C7.53906 15.2773 7.80469 14.9961 8 14.6367C8.19531 14.2695 8.33203 13.8438 8.41016 13.3594C8.49609 12.875 8.53906 12.3477 8.53906 11.7773ZM16.4558 0V18H13.3503V0H16.4558ZM18.1381 11.7891V11.543C18.1381 10.6133 18.2709 9.75781 18.5366 8.97656C18.8022 8.1875 19.1889 7.50391 19.6967 6.92578C20.2045 6.34766 20.8256 5.89844 21.56 5.57812C22.2944 5.25 23.1303 5.08594 24.0678 5.08594C25.0209 5.08594 25.8647 5.25 26.5991 5.57812C27.3412 5.89844 27.9662 6.34766 28.4741 6.92578C28.9819 7.50391 29.3686 8.1875 29.6342 8.97656C29.8998 9.75781 30.0327 10.6133 30.0327 11.543V11.7891C30.0327 12.7109 29.8998 13.5664 29.6342 14.3555C29.3686 15.1367 28.9819 15.8203 28.4741 16.4062C27.9662 16.9844 27.3452 17.4336 26.6108 17.7539C25.8764 18.0742 25.0366 18.2344 24.0912 18.2344C23.1537 18.2344 22.3139 18.0742 21.5717 17.7539C20.8295 17.4336 20.2045 16.9844 19.6967 16.4062C19.1889 15.8203 18.8022 15.1367 18.5366 14.3555C18.2709 13.5664 18.1381 12.7109 18.1381 11.7891ZM21.2319 11.543V11.7891C21.2319 12.3438 21.2866 12.8633 21.3959 13.3477C21.5053 13.832 21.6733 14.2578 21.8998 14.625C22.1264 14.9922 22.4194 15.2812 22.7787 15.4922C23.1459 15.6953 23.5834 15.7969 24.0912 15.7969C24.5912 15.7969 25.0209 15.6953 25.3803 15.4922C25.7397 15.2812 26.0327 14.9922 26.2592 14.625C26.4936 14.2578 26.6655 13.832 26.7748 13.3477C26.8842 12.8633 26.9389 12.3438 26.9389 11.7891V11.543C26.9389 10.9961 26.8842 10.4844 26.7748 10.0078C26.6655 9.52344 26.4936 9.09766 26.2592 8.73047C26.0327 8.35547 25.7358 8.0625 25.3686 7.85156C25.0092 7.63281 24.5756 7.52344 24.0678 7.52344C23.5678 7.52344 23.1381 7.63281 22.7787 7.85156C22.4194 8.0625 22.1264 8.35547 21.8998 8.73047C21.6733 9.09766 21.5053 9.52344 21.3959 10.0078C21.2866 10.4844 21.2319 10.9961 21.2319 11.543ZM39.6252 5.32031H42.4377V17.6133C42.4377 18.7617 42.1877 19.7344 41.6877 20.5312C41.1955 21.3359 40.5041 21.9453 39.6134 22.3594C38.7228 22.7812 37.6877 22.9922 36.508 22.9922C36.0002 22.9922 35.4494 22.9219 34.8556 22.7812C34.2697 22.6406 33.7033 22.418 33.1564 22.1133C32.6173 21.8164 32.1681 21.4297 31.8088 20.9531L33.2033 19.125C33.6252 19.6172 34.1017 19.9883 34.633 20.2383C35.1642 20.4961 35.7384 20.625 36.3556 20.625C36.9806 20.625 37.5119 20.5078 37.9494 20.2734C38.3947 20.0469 38.7345 19.7109 38.9689 19.2656C39.2111 18.8281 39.3322 18.2891 39.3322 17.6484V8.21484L39.6252 5.32031ZM31.0588 11.8125V11.5664C31.0588 10.5977 31.1759 9.71875 31.4103 8.92969C31.6447 8.13281 31.9806 7.44922 32.4181 6.87891C32.8634 6.30859 33.3986 5.86719 34.0236 5.55469C34.6564 5.24219 35.3673 5.08594 36.1564 5.08594C36.9923 5.08594 37.6955 5.23828 38.2658 5.54297C38.8439 5.84766 39.3205 6.28125 39.6955 6.84375C40.0783 7.40625 40.3752 8.07422 40.5861 8.84766C40.8048 9.61328 40.9728 10.457 41.09 11.3789V12.0469C40.9806 12.9453 40.8048 13.7695 40.5627 14.5195C40.3283 15.2695 40.0158 15.9258 39.6252 16.4883C39.2345 17.043 38.7502 17.4727 38.172 17.7773C37.5939 18.082 36.9142 18.2344 36.133 18.2344C35.3517 18.2344 34.6486 18.0742 34.0236 17.7539C33.3986 17.4336 32.8634 16.9844 32.4181 16.4062C31.9806 15.8281 31.6447 15.1484 31.4103 14.3672C31.1759 13.5859 31.0588 12.7344 31.0588 11.8125ZM34.1525 11.5664V11.8125C34.1525 12.3594 34.2072 12.8711 34.3166 13.3477C34.4259 13.8242 34.5939 14.2461 34.8205 14.6133C35.047 14.9727 35.3322 15.2539 35.6759 15.457C36.0197 15.6602 36.4298 15.7617 36.9064 15.7617C37.547 15.7617 38.0705 15.6289 38.4767 15.3633C38.8908 15.0898 39.2033 14.7188 39.4142 14.25C39.633 13.7734 39.7736 13.2383 39.8361 12.6445V10.8047C39.797 10.3359 39.7111 9.90234 39.5783 9.50391C39.4533 9.10547 39.2775 8.76172 39.0509 8.47266C38.8244 8.18359 38.5353 7.95703 38.1838 7.79297C37.8322 7.62891 37.4142 7.54688 36.9298 7.54688C36.4611 7.54688 36.0509 7.65234 35.6994 7.86328C35.3478 8.06641 35.0588 8.35156 34.8322 8.71875C34.6056 9.08594 34.4338 9.51172 34.3166 9.99609C34.2072 10.4805 34.1525 11.0039 34.1525 11.5664ZM47.6005 7.75781V22.875H44.495V5.32031H47.3661L47.6005 7.75781ZM55.745 11.5312V11.7773C55.745 12.6992 55.6356 13.5547 55.4169 14.3438C55.2059 15.125 54.8934 15.8086 54.4794 16.3945C54.0653 16.9727 53.5497 17.4258 52.9325 17.7539C52.3231 18.0742 51.62 18.2344 50.8231 18.2344C50.0419 18.2344 49.3622 18.0859 48.7841 17.7891C48.2059 17.4844 47.7177 17.0547 47.3192 16.5C46.9208 15.9453 46.6005 15.3008 46.3583 14.5664C46.1239 13.8242 45.9481 13.0156 45.8309 12.1406V11.3555C45.9481 10.4258 46.1239 9.58203 46.3583 8.82422C46.6005 8.05859 46.9208 7.39844 47.3192 6.84375C47.7177 6.28125 48.202 5.84766 48.7723 5.54297C49.3505 5.23828 50.0262 5.08594 50.7997 5.08594C51.6044 5.08594 52.3114 5.23828 52.9208 5.54297C53.538 5.84766 54.0575 6.28516 54.4794 6.85547C54.9012 7.42578 55.2177 8.10547 55.4286 8.89453C55.6395 9.68359 55.745 10.5625 55.745 11.5312ZM52.6395 11.7773V11.5312C52.6395 10.9688 52.5887 10.4492 52.4872 9.97266C52.3856 9.48828 52.2294 9.06641 52.0184 8.70703C51.8075 8.33984 51.5341 8.05469 51.1981 7.85156C50.8622 7.64844 50.4559 7.54688 49.9794 7.54688C49.5028 7.54688 49.0927 7.625 48.7489 7.78125C48.4052 7.9375 48.1239 8.16016 47.9052 8.44922C47.6864 8.73828 47.5145 9.08203 47.3895 9.48047C47.2723 9.87109 47.1942 10.3047 47.1552 10.7812V12.7266C47.2255 13.3047 47.3622 13.8242 47.5653 14.2852C47.7684 14.7461 48.0653 15.1133 48.4559 15.3867C48.8544 15.6602 49.37 15.7969 50.0028 15.7969C50.4794 15.7969 50.8856 15.6914 51.2216 15.4805C51.5575 15.2695 51.8309 14.9805 52.0419 14.6133C52.2528 14.2383 52.4052 13.8086 52.4989 13.3242C52.5927 12.8398 52.6395 12.3242 52.6395 11.7773ZM56.7359 11.7891V11.543C56.7359 10.6133 56.8688 9.75781 57.1344 8.97656C57.4 8.1875 57.7867 7.50391 58.2945 6.92578C58.8023 6.34766 59.4234 5.89844 60.1578 5.57812C60.8922 5.25 61.7281 5.08594 62.6656 5.08594C63.6188 5.08594 64.4625 5.25 65.1969 5.57812C65.9391 5.89844 66.5641 6.34766 67.0719 6.92578C67.5797 7.50391 67.9664 8.1875 68.232 8.97656C68.4977 9.75781 68.6305 10.6133 68.6305 11.543V11.7891C68.6305 12.7109 68.4977 13.5664 68.232 14.3555C67.9664 15.1367 67.5797 15.8203 67.0719 16.4062C66.5641 16.9844 65.943 17.4336 65.2086 17.7539C64.4742 18.0742 63.6344 18.2344 62.6891 18.2344C61.7516 18.2344 60.9117 18.0742 60.1695 17.7539C59.4273 17.4336 58.8023 16.9844 58.2945 16.4062C57.7867 15.8203 57.4 15.1367 57.1344 14.3555C56.8688 13.5664 56.7359 12.7109 56.7359 11.7891ZM59.8297 11.543V11.7891C59.8297 12.3438 59.8844 12.8633 59.9938 13.3477C60.1031 13.832 60.2711 14.2578 60.4977 14.625C60.7242 14.9922 61.0172 15.2812 61.3766 15.4922C61.7438 15.6953 62.1813 15.7969 62.6891 15.7969C63.1891 15.7969 63.6188 15.6953 63.9781 15.4922C64.3375 15.2812 64.6305 14.9922 64.857 14.625C65.0914 14.2578 65.2633 13.832 65.3727 13.3477C65.482 12.8633 65.5367 12.3438 65.5367 11.7891V11.543C65.5367 10.9961 65.482 10.4844 65.3727 10.0078C65.2633 9.52344 65.0914 9.09766 64.857 8.73047C64.6305 8.35547 64.3336 8.0625 63.9664 7.85156C63.607 7.63281 63.1734 7.52344 62.6656 7.52344C62.1656 7.52344 61.7359 7.63281 61.3766 7.85156C61.0172 8.0625 60.7242 8.35547 60.4977 8.73047C60.2711 9.09766 60.1031 9.52344 59.9938 10.0078C59.8844 10.4844 59.8297 10.9961 59.8297 11.543ZM77.1331 14.5312C77.1331 14.2656 77.0628 14.0273 76.9222 13.8164C76.7816 13.6055 76.5159 13.4141 76.1253 13.2422C75.7425 13.0625 75.18 12.8945 74.4378 12.7383C73.7816 12.5977 73.1761 12.4219 72.6214 12.2109C72.0667 12 71.5902 11.7461 71.1917 11.4492C70.7933 11.1445 70.4808 10.7891 70.2542 10.3828C70.0355 9.96875 69.9261 9.49219 69.9261 8.95312C69.9261 8.42969 70.0394 7.9375 70.2659 7.47656C70.4925 7.00781 70.8206 6.59766 71.2503 6.24609C71.68 5.88672 72.2034 5.60547 72.8206 5.40234C73.4378 5.19141 74.1331 5.08594 74.9066 5.08594C75.9847 5.08594 76.9105 5.26172 77.6839 5.61328C78.4652 5.96484 79.0628 6.44922 79.4769 7.06641C79.8909 7.67578 80.098 8.36328 80.098 9.12891H77.0042C77.0042 8.79297 76.9261 8.48828 76.7698 8.21484C76.6214 7.94141 76.3909 7.72266 76.0784 7.55859C75.7659 7.38672 75.3714 7.30078 74.8948 7.30078C74.4652 7.30078 74.1019 7.37109 73.805 7.51172C73.5159 7.65234 73.2972 7.83594 73.1488 8.0625C73.0003 8.28906 72.9261 8.53906 72.9261 8.8125C72.9261 9.01562 72.9652 9.19922 73.0433 9.36328C73.1292 9.51953 73.2659 9.66406 73.4534 9.79688C73.6409 9.92969 73.8948 10.0508 74.2152 10.1602C74.5433 10.2695 74.9456 10.375 75.4222 10.4766C76.3675 10.6641 77.1917 10.9141 77.8948 11.2266C78.6058 11.5312 79.1605 11.9375 79.5589 12.4453C79.9573 12.9531 80.1566 13.6016 80.1566 14.3906C80.1566 14.9531 80.0355 15.4688 79.7933 15.9375C79.5511 16.3984 79.1995 16.8008 78.7386 17.1445C78.2777 17.4883 77.7269 17.7578 77.0863 17.9531C76.4456 18.1406 75.723 18.2344 74.9183 18.2344C73.7542 18.2344 72.7698 18.0273 71.9652 17.6133C71.1605 17.1914 70.5511 16.6602 70.137 16.0195C69.723 15.3711 69.5159 14.6992 69.5159 14.0039H72.4808C72.5042 14.4961 72.637 14.8906 72.8792 15.1875C73.1214 15.4844 73.4261 15.6992 73.7933 15.832C74.1683 15.957 74.5628 16.0195 74.9769 16.0195C75.4456 16.0195 75.8402 15.957 76.1605 15.832C76.4808 15.6992 76.723 15.5234 76.887 15.3047C77.0511 15.0781 77.1331 14.8203 77.1331 14.5312ZM87.792 5.32031V7.54688H80.5264V5.32031H87.792ZM82.4717 2.20312H85.5772V14.3438C85.5772 14.7188 85.628 15.0078 85.7295 15.2109C85.8311 15.4141 85.9834 15.5508 86.1866 15.6211C86.3897 15.6914 86.6319 15.7266 86.9131 15.7266C87.1162 15.7266 87.3037 15.7148 87.4756 15.6914C87.6475 15.668 87.792 15.6445 87.9092 15.6211L87.9209 17.9414C87.6631 18.0273 87.3702 18.0977 87.042 18.1523C86.7217 18.207 86.3584 18.2344 85.9522 18.2344C85.2569 18.2344 84.6475 18.1172 84.1241 17.8828C83.6006 17.6406 83.1944 17.2539 82.9053 16.7227C82.6162 16.1836 82.4717 15.4727 82.4717 14.5898V2.20312Z" fill="black"/>
</svg>
